<?xml version="1.0" encoding="utf-8"?>
<!-- Generator: Adobe Illustrator 16.0.0, SVG Export Plug-In . SVG Version: 6.00 Build 0)  -->
<!DOCTYPE svg PUBLIC "-//W3C//DTD SVG 1.1//EN" "http://www.w3.org/Graphics/SVG/1.1/DTD/svg11.dtd">
<svg version="1.1" id="Layer_1" xmlns="http://www.w3.org/2000/svg" xmlns:xlink="http://www.w3.org/1999/xlink" x="0px" y="0px"
	 width="200px" height="200px" viewBox="0 0 200 200" enable-background="new 0 0 200 200" xml:space="preserve">
<g>
	<path fill="#FFFFFF" d="M199.751,93.658c-1.771-29.837-17.929-58.677-42.522-75.592C132.749,0.834,100.225-4.654,71.628,4.135
		C42.741,12.578,18.458,34.496,7.374,62.39c-11.508,27.843-9.446,60.412,5.488,86.583c14.52,26.271,41.377,44.944,71.097,49.672
		c29.48,5.106,61.045-4.445,83.154-24.629C189.375,154.131,201.764,123.479,199.751,93.658z M173.83,151.618l-24.148-16.896
		c3.549-4.921,6.098-10.481,8.025-16.197l-9.354-3.006c-2.24,7.258-6.289,13.946-11.558,19.444l28.503,27.052
		c-1.59,1.584-3.062,3.291-4.789,4.727c-14.878,13.719-34.755,21.849-54.847,23.227l-1.863-29.412c6.04-0.516,12-1.734,17.688-3.814
		l-3.48-9.188c-7.104,2.641-14.861,3.682-22.444,3.034l-3.342,39.154c-2.237-0.233-4.491-0.313-6.696-0.798
		c-20.097-3.103-38.724-13.527-52.322-28.411l21.821-19.81c4.118,4.43,8.802,8.342,13.995,11.465l5.017-8.446
		c-6.518-3.933-12.166-9.315-16.399-15.627l-32.702,21.789c-1.333-1.812-2.404-3.798-3.513-5.755
		c-10.104-17.668-13.62-38.646-10.424-58.601l29.095,4.703c-0.819,5.963-1.185,12.093-0.185,18.084l9.732-1.344
		c-1.026-7.572-0.373-15.32,1.927-22.545L14.155,72.426c0.587-2.18,1.486-4.247,2.32-6.336c7.537-18.815,21.606-34.79,39.318-44.643
		l14.46,25.682c-5.282,2.932-10.15,6.66-14.255,11.113l7.126,6.762c5.253-5.51,11.697-9.877,18.786-12.589L67.989,15.668
		l6.418-2.111c19.392-5.689,40.646-4.85,59.448,2.942L122.754,43.8c-5.577-2.326-11.527-3.782-17.562-4.209l-0.836,9.789
		c7.562,0.652,14.975,2.959,21.527,6.845l20.067-33.786l5.646,3.677c16.479,11.609,29.174,28.771,34.793,48.316l-28.27,8.337
		c-1.592-5.849-4.402-11.29-7.66-16.363l-8.175,5.449c4.286,6.289,7.011,13.566,7.997,21.122l38.926-5.377l0.738,6.68
		C191.115,114.384,185.561,135.132,173.83,151.618z"/>
	<path fill="#FFFFFF" d="M140.925,97.388c-0.759-9.232-4.264-18.113-10.575-24.937l21.82-19.81
		c4.797,5.156,8.58,11.177,11.632,17.495l8.897-4.163c-5.021-10.946-12.655-20.609-21.971-28.167L125.87,68.242
		c-0.831-0.6-1.538-1.373-2.435-1.879c-7.566-5.4-16.817-7.757-26.073-7.343L95.5,29.608c7.02-0.313,14.075,0.226,20.943,1.803
		l2.293-9.555c-11.733-2.761-23.987-2.85-35.722-0.332l8.261,38.418c-0.985,0.256-2.029,0.321-2.97,0.728
		c-8.836,2.48-16.609,8.34-21.967,15.838L42.19,59.612c4.085-5.711,8.916-10.896,14.443-15.254l-6.045-7.746
		c-9.437,7.432-17.191,16.944-22.559,27.695l35.192,17.486c-0.548,0.872-0.854,1.853-1.243,2.796
		c-3.58,8.419-3.889,18.22-1.332,27.05l-28.269,8.338c-1.844-6.763-3.112-13.764-2.866-20.801l-9.824-0.105
		c-0.116,11.972,2.446,24.011,7.533,34.922l35.593-16.649c0.335,0.969,0.925,1.813,1.413,2.707
		c4.417,8.051,11.795,14.549,20.337,17.914l-11.099,27.303c-6.52-2.611-12.671-6.201-18.06-10.717l-6.214,7.609
		c9.297,7.576,20.288,13.119,31.995,15.949l9.17-38.211l3.004,0.555c9.086,1.422,18.767-0.123,26.668-4.736l14.457,25.682
		c-6.096,3.494-12.754,6.05-19.646,7.439l2.065,9.604c11.742-2.523,22.955-7.692,32.425-15.086l-24.173-30.982l2.336-2.001
		c6.761-6.261,11.593-14.711,12.938-23.79l29.096,4.702c-0.998,6.979-3.403,13.684-6.434,20.004l8.797,4.371
		c5.428-10.724,8.282-22.767,8.344-34.765l-39.295-0.417L140.925,97.388z M120.891,123.098c-6.927,6.215-16.619,9.325-25.962,7.657
		c-9.078-1.442-17.699-7.293-22.142-15.521c-4.656-7.941-5.322-18.478-1.707-26.943c3.368-8.726,11.181-15.618,20.004-18.197
		c9.06-2.832,19.065-0.972,26.72,4.319c7.79,5.428,12.649,14.196,13.316,23.597C131.645,107.419,127.934,116.729,120.891,123.098z"
		/>
</g>
</svg>
