<?xml version="1.0" encoding="utf-8"?>
<!-- Generator: Adobe Illustrator 16.0.0, SVG Export Plug-In . SVG Version: 6.00 Build 0)  -->
<!DOCTYPE svg PUBLIC "-//W3C//DTD SVG 1.1//EN" "http://www.w3.org/Graphics/SVG/1.1/DTD/svg11.dtd">
<svg version="1.1" id="Layer_1" xmlns="http://www.w3.org/2000/svg" xmlns:xlink="http://www.w3.org/1999/xlink" x="0px" y="0px"
	 width="365.973px" height="69.271px" viewBox="0 0 365.973 69.271" enable-background="new 0 0 365.973 69.271"
	 xml:space="preserve">
<g>
	<path d="M12.673,53.356c-1.368,0-2.808-0.071-4.248-0.216C5.256,52.709,3.744,52.349,0,50.837l0.864-2.809l0.864-3.601l0.576-3.023
		L3.6,41.188c1.512,2.232,2.232,3.097,3.672,4.177c2.088,1.512,4.464,2.304,6.985,2.304c5.112,0,8.641-2.88,8.641-7.128
		c0-1.801-0.72-3.601-1.944-4.824c-1.368-1.368-2.952-2.377-7.272-4.681c-5.617-2.809-7.489-3.96-9.505-5.905
		c-2.304-2.304-3.6-5.544-3.6-9.145C0.576,6.481,8.208,0,19.514,0c1.152,0,2.304,0.072,3.384,0.216
		c3.024,0.288,4.68,0.792,8.569,2.304l-1.008,2.736l-1.08,3.6l-0.576,2.232l-1.152,0.072c-1.584-2.16-2.376-3.024-3.816-3.888
		c-1.584-1.008-3.672-1.512-5.761-1.512c-4.392,0-7.272,2.448-7.272,6.192c0,1.872,0.864,3.672,2.376,4.969
		c1.512,1.224,3.24,2.232,7.417,4.32c5.688,2.808,7.489,3.96,9.433,6.265c2.088,2.376,3.168,5.328,3.168,8.713
		C33.195,46.156,24.626,53.356,12.673,53.356z"/>
	<path d="M70.202,32.475l-0.792,0.937h-3.384l-7.417-0.072l-6.625,0.072L48.6,33.555c0.216,8.425,4.681,13.25,12.385,13.25
		c1.08,0,2.088-0.072,3.096-0.288c1.728-0.288,2.664-0.792,4.608-2.232l1.008,0.576l-1.368,3.384l-1.08,3.169
		c-1.152,0.359-2.088,0.647-2.736,0.792c-2.521,0.576-5.473,0.936-7.921,0.936c-11.017,0-18.29-7.416-18.29-18.722
		c0-11.233,7.128-19.009,17.425-19.009c8.857,0,14.618,5.544,14.618,14.041C70.346,30.171,70.274,31.179,70.202,32.475z
		 M55.153,19.658c-2.304,0-4.033,0.937-5.185,2.88c-1.008,1.656-1.224,2.809-1.44,6.48h3.312l4.752-0.144
		c2.952-0.072,4.104-1.008,4.104-3.24C60.697,22.25,58.321,19.658,55.153,19.658z"/>
	<path d="M110.81,19.442l-1.08,2.232c-2.16-0.144-3.024-0.216-4.176-0.216c-0.216,0-0.504,0-0.72,0.072h-0.72
		c1.224,1.944,1.512,2.88,1.512,5.112c0,7.488-5.833,12.025-15.625,12.025c-1.8,0-2.448-0.072-4.176-0.433
		c-1.44,1.296-1.872,2.017-1.872,3.024c0,2.521,2.592,3.456,9.577,3.456h3.672c8.208,0,12.313,3.312,12.313,9.865
		c0,8.785-8.065,14.689-20.162,14.689c-9.577,0-16.058-4.104-16.058-10.153c0-1.8,0.576-3.312,1.656-4.536
		c1.008-1.08,1.728-1.584,4.249-2.88l1.944-1.009l-1.44-0.576c-2.521-1.008-4.032-2.952-4.032-4.968c0-1.729,0.936-3.24,3.024-4.969
		l3.601-2.952c-4.249-2.232-6.193-5.4-6.193-9.793c0-7.201,5.833-11.593,15.41-11.593c3.24,0,5.041,0.288,7.561,1.224l6.553-0.072
		c2.016,0,3.168-0.072,5.904-0.36l0.504,0.648L110.81,19.442z M98.785,53.861c-1.8-1.08-3.744-1.297-9.865-1.297
		c-3.168,0-3.96,0.145-5.329,0.937c-2.088,1.152-3.168,2.736-3.168,4.681c0,3.96,3.816,6.408,9.865,6.408
		c6.336,0,10.729-2.736,10.729-6.769C101.017,56.165,100.225,54.653,98.785,53.861z M90.792,19.73c-0.216,0-0.36,0.072-0.504,0.072
		c-3.24,0.288-4.752,2.376-4.752,6.625c0,5.256,1.944,8.28,5.472,8.28c3.385,0,5.185-2.304,5.185-6.625
		C96.192,22.754,94.176,19.73,90.792,19.73z"/>
	<path d="M170.931,51.701h-5.688l-3.024,0.144c0.216-1.44,0.433-2.521,0.504-3.24c0.217-1.729,0.433-6.408,0.433-10.441v-6.048
		v-0.433c0-2.592-0.145-3.888-0.504-5.112c-0.648-2.16-2.665-3.528-5.185-3.528c-2.017,0-3.961,0.864-5.473,2.376
		c-1.728,1.8-2.16,3.168-2.16,7.705v5.112c0,6.553,0.432,10.513,1.44,13.609l-3.168-0.144h-5.689l-3.024,0.144
		c0.216-1.44,0.36-2.521,0.36-3.24c0.216-1.729,0.432-6.408,0.504-10.441l0.072-6.048v-0.36c0-2.592-0.144-4.032-0.504-5.185
		c-0.72-2.16-2.736-3.528-5.185-3.528c-2.088,0-3.96,0.864-5.473,2.376c-1.728,1.8-2.16,3.24-2.16,7.705v5.112
		c0,6.553,0.432,10.513,1.44,13.609l-3.168-0.144h-5.688l-3.024,0.144c0.216-1.44,0.36-2.521,0.432-3.24
		c0.216-1.729,0.432-6.625,0.432-10.441l0.144-8.064c0-3.528-0.216-6.048-0.576-7.488c-0.36-1.512-1.44-2.232-3.168-2.232h-0.576
		l1.44-3.24l2.88-0.144l5.76-0.144l3.457-0.216l-0.144,6.121l2.88-2.448c3.456-2.88,6.336-4.176,9.937-4.176
		c4.969,0,8.281,2.232,9.865,6.769l3.024-2.592c3.384-2.88,6.336-4.176,9.865-4.176c3.744,0,6.769,1.368,8.641,3.888
		c1.513,2.16,1.944,4.032,1.872,9.217l-0.071,9c-0.072,6.553,0.432,10.513,1.439,13.609L170.931,51.701z"/>
	<path d="M212.472,32.475l-0.792,0.937h-3.384l-7.417-0.072l-6.624,0.072l-3.385,0.144c0.216,8.425,4.681,13.25,12.385,13.25
		c1.08,0,2.089-0.072,3.097-0.288c1.729-0.288,2.664-0.792,4.608-2.232l1.008,0.576l-1.368,3.384l-1.08,3.169
		c-1.152,0.359-2.088,0.647-2.736,0.792c-2.52,0.576-5.472,0.936-7.92,0.936c-11.018,0-18.29-7.416-18.29-18.722
		c0-11.233,7.129-19.009,17.426-19.009c8.856,0,14.617,5.544,14.617,14.041C212.616,30.171,212.544,31.179,212.472,32.475z
		 M197.423,19.658c-2.305,0-4.032,0.937-5.185,2.88c-1.008,1.656-1.224,2.809-1.44,6.48h3.312l4.753-0.144
		c2.952-0.072,4.104-1.008,4.104-3.24C202.967,22.25,200.591,19.658,197.423,19.658z"/>
	<path d="M252.143,51.701h-5.688l-3.024,0.144c0.216-1.44,0.433-2.521,0.504-3.24c0.145-1.152,0.217-2.88,0.288-5.185
		c0.072-2.304,0.145-4.032,0.145-5.257v-6.048c0-2.953-0.145-4.321-0.576-5.545c-0.72-2.16-2.88-3.528-5.545-3.528
		c-2.088,0-4.104,0.864-5.616,2.376c-1.8,1.8-2.232,3.24-2.232,7.705v5.112c0,6.48,0.433,10.513,1.44,13.609l-3.168-0.144h-5.688
		l-3.024,0.144c0.288-1.44,0.432-2.521,0.504-3.24c0.216-1.729,0.432-6.625,0.432-10.441l0.145-8.064
		c0-3.528-0.288-6.048-0.648-7.488c-0.359-1.512-1.368-2.232-3.096-2.232h-0.576l1.44-3.24l2.88-0.144l5.761-0.144l3.384-0.216
		l-0.144,6.048l2.952-2.376c3.672-2.953,6.408-4.176,10.152-4.176c3.889,0,6.913,1.368,8.857,3.888
		c1.584,2.16,2.016,4.104,1.944,9.217l-0.072,9c-0.072,6.553,0.432,10.513,1.439,13.609L252.143,51.701z"/>
	<path d="M285.189,19.946l-0.936,2.665c-2.809-0.216-3.816-0.288-6.049-0.288h-2.88l-0.216,6.625v7.632v0.504
		c0,3.673,0.071,4.753,0.432,6.193c0.576,2.376,2.376,3.744,4.824,3.744c1.584,0,2.809-0.36,4.608-1.296l0.864,0.504l-0.72,2.304
		l-0.721,3.024c-4.176,1.152-6.265,1.512-8.568,1.512c-7.2,0-10.297-3.6-10.297-12.024v-3.312l0.072-6.984
		c0.071-3.816-0.217-6.337-0.576-7.777c-0.36-1.512-1.368-2.232-3.097-2.232h-1.224l1.439-3.601l3.745-0.072
		c0-2.304-0.072-2.953-0.288-6.193l2.736-0.936l4.464-2.016l2.448-1.368l0.792,0.792c-0.504,3.384-0.576,4.32-0.72,9.793
		l4.968,0.072h0.433c2.376,0,2.952-0.072,5.04-0.504l0.504,0.72L285.189,19.946z"/>
	<path d="M299.157,51.413c-0.721,0.863-2.232,1.224-5.112,1.224c-3.169,0-3.961-0.936-3.961-4.536c0-2.881,0.36-4.608,1.08-5.329
		c0.721-0.72,2.376-1.08,4.969-1.08c3.24,0,3.96,0.864,3.96,4.537v0.576C300.093,49.685,299.805,50.621,299.157,51.413z"/>
	<path d="M318.811,51.701h-5.689l-3.023,0.144c0.217-1.44,0.359-2.521,0.432-3.24c0.217-1.729,0.432-6.625,0.432-10.441l0.145-8.064
		c0-3.528-0.215-6.048-0.576-7.488c-0.359-1.512-1.439-2.232-3.168-2.232h-0.576l1.441-3.24l2.879-0.144l6.625-0.216l3.457-0.216
		c-0.434,6.337-0.648,8.929-0.648,12.097v9.577c0,6.553,0.432,10.513,1.439,13.609L318.811,51.701z M321.475,5.761
		c-0.072,2.592-0.287,3.528-1.008,4.249c-0.793,0.792-2.449,1.08-5.617,1.08c-3.6,0-4.463-0.792-4.463-4.104
		c0-2.736,0.359-4.32,1.223-4.968c0.793-0.648,2.664-1.008,5.473-1.008c3.672,0,4.465,0.792,4.465,4.249
		C321.547,5.401,321.547,5.545,321.475,5.761z"/>
	<path d="M346.317,52.997c-11.305,0-17.93-6.625-17.93-18.002c0-11.737,7.271-19.514,18.938-19.514h0.791
		c11.449,0,17.857,6.409,17.857,17.714C365.973,45.292,358.27,52.997,346.317,52.997z M347.252,19.586c-0.217,0-0.504,0-0.793,0.072
		c-5.184,0.576-7.631,4.825-7.631,13.538c0,10.081,2.951,15.697,8.279,15.697c5.545,0,8.354-4.608,8.354-13.682
		C355.461,25.203,352.508,19.586,347.252,19.586z"/>
</g>
</svg>
